<?xml version="1.0" encoding="UTF-8"?>
<svg version="1.1" xmlns="http://www.w3.org/2000/svg" width="360" height="360">
<path d="M0 0 C0.87577566 -0.00453111 1.75155132 -0.00906223 2.65386564 -0.01373065 C5.5644901 -0.02630799 8.47492585 -0.0247586 11.38557434 -0.02310181 C13.48238869 -0.02909127 15.57920085 -0.03589777 17.67601013 -0.04345703 C23.35599997 -0.06108285 29.0359295 -0.06581101 34.71594405 -0.0670886 C38.2698267 -0.06851283 41.82369415 -0.07278762 45.37757301 -0.07808304 C57.79089451 -0.09657286 70.20417313 -0.10475507 82.61750793 -0.10317993 C94.16398813 -0.10197921 105.71028119 -0.12307069 117.25671405 -0.15466726 C127.18994972 -0.18087463 137.12312444 -0.19154534 147.0563944 -0.19026911 C152.98013953 -0.18976074 158.90371831 -0.19537467 164.82742882 -0.21662521 C170.40322591 -0.23608245 175.97869926 -0.23608095 181.55450821 -0.22159195 C183.59175022 -0.21951195 185.62901291 -0.22415606 187.66621971 -0.23631287 C208.6978043 -0.35360874 227.14731896 4.10846097 242.70466614 19.0652771 C244.10040069 20.45198239 245.47539237 21.859468 246.84968567 23.26742554 C247.66179504 24.07051147 248.47390442 24.87359741 249.31062317 25.70101929 C261.67590824 38.55163124 270.00094177 55.99142368 269.99685669 73.89202881 C270.00053338 74.75959765 270.00421007 75.62716649 270.00799817 76.5210253 C270.01901013 79.42787177 270.02287469 82.33468245 270.02668762 85.24154663 C270.03295434 87.32629509 270.03960133 89.41104244 270.04660034 91.49578857 C270.06762517 98.34413884 270.07800395 105.19248928 270.08796692 112.04086304 C270.09201561 114.4021366 270.09613257 116.76341005 270.100317 119.12468338 C270.11936829 130.22362216 270.13359726 141.3225543 270.14192897 152.42150629 C270.15168968 165.21153903 270.17797909 178.00139818 270.21842986 190.7913698 C270.24865491 200.68971377 270.26340406 210.58800818 270.26670998 220.48639739 C270.26905392 226.39180115 270.27792836 232.29701946 270.30317116 238.2023735 C270.32656754 243.76579493 270.33063876 249.32891032 270.32040977 254.89236832 C270.31991705 256.92435478 270.32615905 258.9563569 270.33996582 260.98829651 C270.48072682 282.94898552 265.99122726 301.47942505 250.84968567 318.26742554 C250.25800598 318.95191772 249.66632629 319.63640991 249.05671692 320.34164429 C237.94083593 332.40557483 221.02549763 341.06973394 204.62754786 342.45517039 C202.31608131 342.52808703 200.0119666 342.54379548 197.69937134 342.53485107 C196.82359568 342.53938219 195.94782002 342.5439133 195.0455057 342.54858172 C192.13488124 342.56115907 189.22444549 342.55960967 186.313797 342.55795288 C184.21698264 342.56394234 182.12017049 342.57074885 180.02336121 342.57830811 C174.34337136 342.59593393 168.66344183 342.60066208 162.98342729 342.60193968 C159.42954464 342.60336391 155.87567719 342.60763869 152.32179832 342.61293411 C139.90847683 342.63142394 127.49519821 342.63960614 115.0818634 342.63803101 C103.53538321 342.63683029 91.98909015 342.65792176 80.44265729 342.68951833 C70.50942162 342.7157257 60.57624689 342.72639641 50.64297694 342.72512019 C44.71923181 342.72461182 38.79565302 342.73022574 32.87194252 342.75147629 C27.29614542 342.77093352 21.72067208 342.77093202 16.14486313 342.75644302 C14.10762111 342.75436302 12.07035843 342.75900713 10.03315163 342.77116394 C-11.16001869 342.889361 -29.5219432 338.34666815 -45.1459198 323.26083374 C-46.48586543 321.93487933 -47.81835539 320.6014026 -49.15031433 319.26742554 C-49.81547058 318.67316772 -50.48062683 318.07890991 -51.16593933 317.46664429 C-59.49066245 309.9106456 -65.32050514 298.74188601 -69.15031433 288.26742554 C-69.39781465 287.61556149 -69.64531496 286.96369743 -69.90031528 286.29207993 C-73.0792978 276.59033609 -72.57934097 266.69918888 -72.55436707 256.6121521 C-72.56007665 254.52651607 -72.56704318 252.44088316 -72.57516479 250.35525513 C-72.59304886 244.714538 -72.59193642 239.07397686 -72.58622241 233.43323994 C-72.58312284 228.71196691 -72.58923174 223.99072351 -72.59526116 219.26945472 C-72.60928999 208.12324525 -72.60775952 196.97711244 -72.59635925 185.8309021 C-72.58488721 174.36164298 -72.59894223 162.89261795 -72.62575573 151.42338967 C-72.6479667 141.55038701 -72.65453773 131.67745753 -72.64867932 121.80443168 C-72.64532054 115.91925942 -72.6476525 110.03423707 -72.66493034 104.149086 C-72.6804829 98.61017893 -72.67635215 93.07161634 -72.6576252 87.53272247 C-72.65396185 85.5104173 -72.65698124 83.48808613 -72.66751099 81.46580505 C-72.76892761 60.36207064 -68.72182272 41.4941154 -54.15031433 25.26742554 C-53.42199402 24.44629272 -52.69367371 23.62515991 -51.94328308 22.77914429 C-38.43573292 8.39873143 -19.74206127 -0.07635622 0 0 Z " fill="#FDFEFE" transform="translate(81.15031433105469,8.732574462890625)"/>
<path d="M0 0 C0.87577566 -0.00453111 1.75155132 -0.00906223 2.65386564 -0.01373065 C5.5644901 -0.02630799 8.47492585 -0.0247586 11.38557434 -0.02310181 C13.48238869 -0.02909127 15.57920085 -0.03589777 17.67601013 -0.04345703 C23.35599997 -0.06108285 29.0359295 -0.06581101 34.71594405 -0.0670886 C38.2698267 -0.06851283 41.82369415 -0.07278762 45.37757301 -0.07808304 C57.79089451 -0.09657286 70.20417313 -0.10475507 82.61750793 -0.10317993 C94.16398813 -0.10197921 105.71028119 -0.12307069 117.25671405 -0.15466726 C127.18994972 -0.18087463 137.12312444 -0.19154534 147.0563944 -0.19026911 C152.98013953 -0.18976074 158.90371831 -0.19537467 164.82742882 -0.21662521 C170.40322591 -0.23608245 175.97869926 -0.23608095 181.55450821 -0.22159195 C183.59175022 -0.21951195 185.62901291 -0.22415606 187.66621971 -0.23631287 C208.6978043 -0.35360874 227.14731896 4.10846097 242.70466614 19.0652771 C244.10040069 20.45198239 245.47539237 21.859468 246.84968567 23.26742554 C247.66179504 24.07051147 248.47390442 24.87359741 249.31062317 25.70101929 C261.67590824 38.55163124 270.00094177 55.99142368 269.99685669 73.89202881 C270.00053338 74.75959765 270.00421007 75.62716649 270.00799817 76.5210253 C270.01901013 79.42787177 270.02287469 82.33468245 270.02668762 85.24154663 C270.03295434 87.32629509 270.03960133 89.41104244 270.04660034 91.49578857 C270.06762517 98.34413884 270.07800395 105.19248928 270.08796692 112.04086304 C270.09201561 114.4021366 270.09613257 116.76341005 270.100317 119.12468338 C270.11936829 130.22362216 270.13359726 141.3225543 270.14192897 152.42150629 C270.15168968 165.21153903 270.17797909 178.00139818 270.21842986 190.7913698 C270.24865491 200.68971377 270.26340406 210.58800818 270.26670998 220.48639739 C270.26905392 226.39180115 270.27792836 232.29701946 270.30317116 238.2023735 C270.32656754 243.76579493 270.33063876 249.32891032 270.32040977 254.89236832 C270.31991705 256.92435478 270.32615905 258.9563569 270.33996582 260.98829651 C270.48072682 282.94898552 265.99122726 301.47942505 250.84968567 318.26742554 C250.25800598 318.95191772 249.66632629 319.63640991 249.05671692 320.34164429 C237.94083593 332.40557483 221.02549763 341.06973394 204.62754786 342.45517039 C202.31608131 342.52808703 200.0119666 342.54379548 197.69937134 342.53485107 C196.82359568 342.53938219 195.94782002 342.5439133 195.0455057 342.54858172 C192.13488124 342.56115907 189.22444549 342.55960967 186.313797 342.55795288 C184.21698264 342.56394234 182.12017049 342.57074885 180.02336121 342.57830811 C174.34337136 342.59593393 168.66344183 342.60066208 162.98342729 342.60193968 C159.42954464 342.60336391 155.87567719 342.60763869 152.32179832 342.61293411 C139.90847683 342.63142394 127.49519821 342.63960614 115.0818634 342.63803101 C103.53538321 342.63683029 91.98909015 342.65792176 80.44265729 342.68951833 C70.50942162 342.7157257 60.57624689 342.72639641 50.64297694 342.72512019 C44.71923181 342.72461182 38.79565302 342.73022574 32.87194252 342.75147629 C27.29614542 342.77093352 21.72067208 342.77093202 16.14486313 342.75644302 C14.10762111 342.75436302 12.07035843 342.75900713 10.03315163 342.77116394 C-11.16001869 342.889361 -29.5219432 338.34666815 -45.1459198 323.26083374 C-46.48586543 321.93487933 -47.81835539 320.6014026 -49.15031433 319.26742554 C-49.81547058 318.67316772 -50.48062683 318.07890991 -51.16593933 317.46664429 C-59.49066245 309.9106456 -65.32050514 298.74188601 -69.15031433 288.26742554 C-69.39781465 287.61556149 -69.64531496 286.96369743 -69.90031528 286.29207993 C-73.0792978 276.59033609 -72.57934097 266.69918888 -72.55436707 256.6121521 C-72.56007665 254.52651607 -72.56704318 252.44088316 -72.57516479 250.35525513 C-72.59304886 244.714538 -72.59193642 239.07397686 -72.58622241 233.43323994 C-72.58312284 228.71196691 -72.58923174 223.99072351 -72.59526116 219.26945472 C-72.60928999 208.12324525 -72.60775952 196.97711244 -72.59635925 185.8309021 C-72.58488721 174.36164298 -72.59894223 162.89261795 -72.62575573 151.42338967 C-72.6479667 141.55038701 -72.65453773 131.67745753 -72.64867932 121.80443168 C-72.64532054 115.91925942 -72.6476525 110.03423707 -72.66493034 104.149086 C-72.6804829 98.61017893 -72.67635215 93.07161634 -72.6576252 87.53272247 C-72.65396185 85.5104173 -72.65698124 83.48808613 -72.66751099 81.46580505 C-72.76892761 60.36207064 -68.72182272 41.4941154 -54.15031433 25.26742554 C-53.42199402 24.44629272 -52.69367371 23.62515991 -51.94328308 22.77914429 C-38.43573292 8.39873143 -19.74206127 -0.07635622 0 0 Z M-43.58781433 39.32992554 C-47.13546066 44.36623 -48.16294809 49.17197023 -47.15031433 55.26742554 C-45.11606172 60.71639867 -42.54449741 65.87335852 -39.96281433 71.07992554 C-39.22393179 72.60309223 -38.48697789 74.12719588 -37.75187683 75.65219116 C-36.26325503 78.73767377 -34.76734121 81.81944319 -33.26603699 84.89877319 C-30.30880641 90.98238495 -27.47840659 97.12281771 -24.65031433 103.26742554 C-20.45636389 112.33540866 -16.2174967 121.38095297 -11.95085144 130.41488647 C-9.56804714 135.46105096 -7.19579624 140.51214588 -4.82754517 145.56515503 C-3.44147571 148.52175264 -2.05112935 151.47592037 -0.64836121 154.4246521 C0.55251768 156.94932752 1.73557119 159.48137924 2.91218567 162.01742554 C3.24065491 162.69498901 3.56912415 163.37255249 3.907547 164.07064819 C5.8429144 168.31393152 5.87595968 170.77642809 4.84968567 175.26742554 C4.12496431 177.13392329 3.32678685 178.97299911 2.47077942 180.78305054 C1.96997864 181.85168335 1.46917786 182.92031616 0.95320129 184.02133179 C0.40341614 185.17504272 -0.14636902 186.32875366 -0.71281433 187.51742554 C-1.29358108 188.75017427 -1.87364214 189.98325567 -2.45304871 191.21664429 C-3.69450988 193.85599301 -4.94040904 196.4931804 -6.18986511 199.12875366 C-8.17275419 203.31194681 -10.14506065 207.50007067 -12.11515808 211.68930054 C-12.785478 213.11443491 -13.45580681 214.5395651 -14.12614441 215.96469116 C-14.45949799 216.67343384 -14.79285156 217.38217651 -15.13630676 218.11239624 C-16.15421685 220.27571941 -17.17301075 222.43862426 -18.19206238 224.60140991 C-23.55386414 235.98286078 -28.88790602 247.37655258 -34.15422058 258.80258179 C-36.12608345 263.07847138 -38.13565835 267.333205 -40.17765808 271.57601929 C-41.10605435 273.53564956 -42.03444034 275.49528471 -42.96281433 277.45492554 C-43.60355896 278.75478394 -43.60355896 278.75478394 -44.25724792 280.0809021 C-47.13068253 286.20912591 -48.53711991 291.87330994 -46.44621277 298.49838257 C-44.19774303 304.02575573 -40.1984878 307.27169221 -35.15031433 310.26742554 C-29.28535069 312.22241342 -24.62815871 311.79243731 -19.02531433 309.39242554 C-8.9202312 303.66926466 -4.81530474 289.54392982 -0.08781433 279.39242554 C0.66223331 277.79244676 1.41272726 276.19267714 2.16365051 274.59310913 C5.66365259 267.12927304 9.13811058 259.65359254 12.60359192 252.17367554 C12.89369644 251.54774506 13.18380096 250.92181458 13.48269653 250.2769165 C14.81755307 247.39557722 16.14911326 244.51280069 17.47492981 241.62728882 C21.10496561 233.75638503 24.93760624 226.00073993 28.84968567 218.26742554 C31.72655447 224.30820394 34.60132281 230.34997872 37.47468567 236.39242554 C37.90463837 237.29646118 38.33459106 238.20049683 38.77757263 239.13192749 C44.11988357 250.3685197 49.43099719 261.61831659 54.67066956 272.90313721 C56.58245828 277.01630413 58.50541674 281.12424777 60.42927551 285.23178101 C61.32860912 287.1538013 62.22512573 289.07714436 63.11775208 291.00228882 C64.1802957 293.28557003 65.26078774 295.5591258 66.34968567 297.82992554 C66.89624817 298.9862146 67.44281067 300.14250366 68.00593567 301.33383179 C71.02954128 306.1446958 75.24715887 309.83422101 80.84968567 311.26742554 C86.16074319 312.02322988 89.67984125 311.71149345 94.16218567 308.64242554 C94.77706848 308.15515991 95.39195129 307.66789429 96.02546692 307.16586304 C96.62745911 306.86937866 97.22945129 306.57289429 97.84968567 306.26742554 C99.90827942 307.01742554 99.90827942 307.01742554 101.84968567 308.26742554 C106.54630848 311.04270265 110.44853847 312.13311463 115.84968567 311.26742554 C118.52706954 310.3893125 121.12661105 309.37045493 123.74812317 308.33773804 C127.15994258 307.16035955 130.48792941 306.47999984 134.03718567 305.82992554 C159.85218536 300.94388815 183.12732378 289.79300585 201.84968567 271.26742554 C202.56382629 270.61387085 203.27796692 269.96031616 204.01374817 269.28695679 C226.88948912 247.91499961 237.74917343 212.79106338 238.97370911 182.1656189 C239.83338027 145.02198742 234.03078728 105.54865866 207.72468567 77.26742554 C205.78720707 75.24536356 203.82191631 73.25609143 201.84968567 71.26742554 C201.12781067 70.49656616 200.40593567 69.72570679 199.66218567 68.93148804 C180.69186426 48.96675461 152.33283153 39.49900642 125.90827942 34.73617554 C123.72588736 34.23923617 121.79044383 33.4988627 119.72468567 32.64242554 C115.71704211 31.08121499 112.10915352 30.32638031 107.84968567 31.26742554 C105.65276236 32.49417469 103.69165715 33.82059657 101.70906067 35.36898804 C100.78867004 35.8137146 100.78867004 35.8137146 99.84968567 36.26742554 C97.78327942 35.51742554 97.78327942 35.51742554 95.84968567 34.26742554 C90.77056118 31.19632701 86.66232596 30.39060353 80.84968567 31.26742554 C73.98647889 33.44446425 69.8679766 37.58730103 66.44245911 43.83334351 C64.86321103 46.99866941 63.34762332 50.18781748 61.84968567 53.39242554 C61.28572083 54.58166626 60.72175598 55.77090698 60.14070129 56.9961853 C58.36376357 60.74709571 56.6053696 64.50653073 54.84968567 68.26742554 C54.30183411 69.43869995 53.75398254 70.60997437 53.18952942 71.81674194 C49.9526541 78.74580005 46.73798217 85.68495402 43.53181458 92.62826538 C40.83669621 98.46235484 38.12716743 104.28976482 35.41950989 110.11804199 C34.0246615 113.12073875 32.63056215 116.12378305 31.23640442 119.12680054 C30.4408315 120.8403422 29.64525859 122.55388387 28.84968567 124.26742554 C23.80643515 114.28576687 18.89281038 104.25499675 14.15016174 94.12704468 C13.1297755 91.9482203 12.10637962 89.77082721 11.08259583 87.59359741 C7.73726362 80.47221351 4.41531873 73.34079913 1.13484192 66.18930054 C0.5517883 64.92138053 -0.03130011 63.65347653 -0.61442566 62.3855896 C-1.68591535 60.05140215 -2.75252712 57.7149664 -3.81315613 55.37582397 C-9.83183203 41.09306103 -9.83183203 41.09306103 -21.63468933 32.04476929 C-30.52801774 29.29667557 -37.98745502 32.07218066 -43.58781433 39.32992554 Z " fill="#0F6E56" transform="translate(81.15031433105469,8.732574462890625)"/>
<path d="M0 0 C20.92403626 2.98914804 39.46370735 15.44779972 52.12890625 32.16796875 C69.34081746 58.21940012 72.52746391 93.86195159 66.4375 124.125 C62.59652889 141.21260257 54.24971998 156.53944146 42 169 C41.07767578 169.94166016 41.07767578 169.94166016 40.13671875 170.90234375 C30.48697021 180.01484719 13.43322675 190 0 190 C0 127.3 0 64.6 0 0 Z " fill="#0F6E56" transform="translate(213,85)"/>
<path d="M0 0 C0.33 0 0.66 0 1 0 C1 61.38 1 122.76 1 186 C-1.52567685 182.63243087 -3.1244817 179.87346921 -4.86328125 176.1015625 C-5.68807983 174.32241455 -5.68807983 174.32241455 -6.52954102 172.50732422 C-7.12390486 171.21323644 -7.71822327 169.91912779 -8.3125 168.625 C-8.93562279 167.27727812 -9.559248 165.92978842 -10.18334961 164.58251953 C-11.48028162 161.78181107 -12.77504186 158.98011366 -14.06835938 156.17773438 C-16.18426606 151.59671426 -18.31682102 147.0235645 -20.45550537 142.45314026 C-21.90337163 139.35891157 -23.34714447 136.26295121 -24.78027344 133.16186523 C-27.42079808 127.45711889 -30.09096029 121.77566231 -32.90357971 116.15332031 C-34.17122606 113.61352754 -35.41715991 111.06337477 -36.66134644 108.51202393 C-37.5377834 106.73754256 -38.44537126 104.97855389 -39.35375977 103.22021484 C-43.68200632 94.3028156 -43.68200632 94.3028156 -42.20703125 89.4765625 C-41.51598978 87.96318681 -40.7755384 86.47186429 -40 85 C-39.57823486 84.08484619 -39.15646973 83.16969238 -38.72192383 82.22680664 C-37.23808183 79.02159421 -35.68742703 75.85510646 -34.125 72.6875 C-32.9475653 70.27161762 -31.77146996 67.85513837 -30.59765625 65.4375 C-30.29788376 64.82102097 -29.99811127 64.20454193 -29.68925476 63.56938171 C-26.57123189 57.14392166 -23.55910062 50.67038401 -20.5625 44.1875 C-20.03906006 43.05562256 -19.51562012 41.92374512 -18.97631836 40.75756836 C-17.89385843 38.41642646 -16.81158632 36.07519772 -15.72949219 33.73388672 C-12.56618822 26.8978559 -9.37485766 20.07483795 -6.1875 13.25 C-5.56387139 11.91431228 -4.94025451 10.57861908 -4.31665039 9.24291992 C-2.87806534 6.1618072 -1.43914238 3.08085244 0 0 Z " fill="#14715A" transform="translate(174,87)"/>
</svg>
